# xmcd
# Track frame offsets:
# 150
# 13172
# 24983
# 36952
# 53179
# 69682
# 85583
# 102322
# 115812
# 130395
#
# Disc length: 1947 seconds
# Revision: 0
# Processed by: cddbd v1.5.2PL0 Copyright (c) Steve Scherf et al.
# Submitted via: VisiTrax 2.11.1.266 - For more info visit www.synapsa.com
#
DISCID=8107990a
DTITLE=Various Artist - Countdown Country  #1 Country Hits CD2
DYEAR=2002
DGENRE=Country
TTITLE0=Rose Garden
TTITLE1=The Most Beautiful Girl
TTITLE2=Thank God I'm a Country Boy
TTITLE3=Lucille
TTITLE4=It Was Almost Like A Song
TTITLE5=The Devil Went Down To Georgia
TTITLE6=Always On My Mind
TTITLE7=I Will Always Love You
TTITLE8=All My Ex's Live In Texas
TTITLE9=I'm No Stranger To The Rain
EXTD=
EXTT0=
EXTT1=
EXTT2=
EXTT3=
EXTT4=
EXTT5=
EXTT6=
EXTT7=
EXTT8=
EXTT9=
PLAYORDER=
